ply
format ascii 1.0
comment author: Sandy
comment object: 3D surface
element vertex 508
property float x
property float y
property float z
property uchar red
property uchar green
property uchar blue
element face 683
property list uchar int vertex_indices
end_header
-0.00693995577895 -0.0157188996593 -0.567789106028 0 0 0
0.000694942657164 0.0192741989535 -0.53969967329 177 106 99
-0.021448335243 -0.0312898669151 -0.693804874089 125 50 58
-0.0109723693681 -0.0300265440935 -0.597558380042 178 153 60
-0.0274766962657 -0.0423352724467 -0.704106458638 143 73 82
-0.0259110277306 -0.000395617946881 -0.7088815803 241 211 133
-0.0294574011973 -0.0480492062268 -0.701988511144 132 59 60
-0.0124449366015 -0.0149230112074 -0.594836952592 219 165 81
-0.0275882267133 -0.000159099171799 -0.70980868625 165 96 35
-0.0175292790985 -0.0226516007028 -0.650488103334 152 77 69
-0.0102962751564 -0.0153438107473 -0.594962778007 253 209 131
-0.0422673574529 -0.0796898067509 -0.641783805099 238 176 108
-0.0157742346467 -0.0200406029301 -0.630988226912 237 176 92
-0.0232237389733 -0.00717054854799 -0.641260514815 233 183 111
-0.010971034943 -0.0192535797097 -0.620546430521 223 169 80
0.014727999876 0.0169346069208 -0.557347858739 245 190 132
-0.0151478472385 -0.0215941965749 -0.640051288407 180 105 85
-0.0138635599538 -0.0165922103701 -0.606600422489 244 196 110
-0.0182522929604 -0.0271267675737 -0.682232846534 145 72 78
0.0113672660627 0.022266680769 -0.547223038032 223 161 96
-0.015351917208 -0.0264326524295 -0.671330761252 251 206 127
-0.0223933872035 -0.00671147762405 -0.642972201005 248 207 131
-0.0172876679188 -0.0259324304438 -0.676234779361 205 139 60
-0.0270690846507 -0.000775038149323 -0.712922637452 245 185 117
0.00625218243931 0.0164004756876 -0.548692812027 190 113 79
-0.0225172047487 -0.000352587813512 -0.685297434706 137 67 57
-0.0315913968707 -0.0530108362111 -0.694698711337 147 76 73
-0.0176236782504 -0.0262236170628 -0.669295865127 251 204 125
-0.0304744709833 -0.0575469244004 -0.683041477648 122 54 49
0.00324142594883 -0.0107706549615 -0.589954426196 193 116 55
-0.0215853058732 -0.0357853277038 -0.698281324862 241 173 117
-0.0113768290403 -0.00771375467954 -0.581394397361 232 181 92
-0.00889268420924 -0.0205636908597 -0.605835587246 129 58 33
-0.0276440611547 0.00323716046356 -0.708702394599 215 160 86
-0.0159392951684 -0.0128788620731 -0.618952966206 214 135 100
-0.0154418869644 -0.0102397423055 -0.680592095812 237 179 103
-0.0202184814507 -0.00221934294739 -0.64214549626 195 130 74
-0.0111901076731 -0.0252728518102 -0.651629226651 208 138 84
-0.0192583388137 -0.0362908568884 -0.699974100704 238 170 115
-0.0177638375932 -0.0124567952938 -0.624048815879 157 78 38
-0.0328583230443 -0.0515374551549 -0.704256000505 204 136 81
-0.00667425389249 -0.0168159635751 -0.572119767216 89 101 129
-0.0155613755282 0.0172433162889 -0.72614362332 48 45 80
-0.0180701994191 -0.027092414864 -0.686652469386 198 114 100
-0.0214013345851 0.0180690136243 -0.721574847238 54 52 84
-0.0189025087212 -0.0329297292844 -0.688701215442 215 137 103
-0.0329985424101 -0.000362197940248 -0.633087357915 213 160 102
-0.0283948673371 -0.0509414771935 -0.701262768306 215 157 90
-0.0170557898345 -0.0239909858896 -0.668680457751 186 105 79
-0.00680661969873 -0.0179316840544 -0.65040720301 202 134 70
-0.017523117795 -0.0193769558465 -0.600015579684 170 108 75
-0.00573883768039 -0.00981570870814 -0.576148045777 245 200 118
-0.00874479338656 -0.0202872556267 -0.607850260996 185 115 80
-0.013368045243 -0.0252993869969 -0.591304372727 227 191 115
-0.00943615134698 -0.018206284169 -0.594110394869 168 101 60
-0.0171755821621 -0.0373788451736 -0.641314454346 155 111 48
-0.0274441818416 0.00325341933068 -0.711013895797 186 117 46
-0.0225220159815 -0.0108604367377 -0.645652566342 147 77 74
-0.0155967786455 -0.0278826962657 -0.674720712635 219 139 101
-0.0215563871885 -0.0290631762308 -0.691126746958 135 62 57
-0.0143267966199 0.0171246869864 -0.727198445878 44 45 82
-0.0219621450878 0.000477459645144 -0.681372318566 177 102 75
-0.0191402431857 -0.024820016426 -0.674531764215 242 183 99
-0.0222922089846 0.005761986707 -0.688887252316 248 184 130
-0.0343473030021 -0.0644201587649 -0.659077673396 154 81 71
0.00135679829797 -0.0196726227951 -0.580026409427 91 99 129
-0.0234324026298 -0.0360137661451 -0.69795465571 225 168 99
-0.0261874540752 -0.0356957592059 -0.707108246372 199 128 88
-0.0424195180175 -0.078209444629 -0.648278895594 147 85 95
-0.0214569415895 -0.0259916315244 -0.706839846281 71 23 37
0.00688713399477 -0.0114275863505 -0.583927833758 233 178 91
0.00998808874779 0.0128661949155 -0.564511653954 112 62 72
-0.0157166930942 -0.0360003694812 -0.641602780359 163 114 36
-0.0157044629498 -0.0360065486655 -0.641605257179 163 114 36
-0.00238642187313 -0.0121010749421 -0.56350330598 93 98 134
-0.0127210448597 0.0110558606683 -0.563447620155 89 96 127
-0.0134090988714 -0.0339186915186 -0.620096500005 186 133 70
-0.0238426880024 -0.0010077758462 -0.590864868893 247 167 163
-0.0509424019349 -0.0534011043657 -0.680707067922 183 115 76
-0.0258711380034 -0.00204858910082 -0.711287604191 190 120 77
-0.0241903901923 0.00525973376142 -0.687660902541 216 152 93
-0.0269386713818 -0.000641450442918 -0.714616068257 204 141 79
-0.0119596098429 -0.0209170975276 -0.641711211977 156 77 53
-0.0159630655976 -0.0119685151611 -0.581583205094 220 156 74
-0.0143406890135 -0.025687770786 -0.675561164247 167 87 56
-0.00033424399437 0.0139570415203 -0.548781094305 252 212 171
-0.0042224246878 -0.0147793446702 -0.580279472527 212 127 86
-0.0195467781445 -0.0254606703272 -0.680770940979 143 75 73
-0.00411407124912 -0.00445075319792 -0.562110749945 246 194 119
-0.00753332634518 -0.011905128155 -0.579088702173 246 190 114
-0.041015045164 -0.0766250015447 -0.650122809317 162 99 95
-0.0257813247786 -0.0022968586995 -0.714375875673 208 144 72
0.00179208857107 -0.0188526133548 -0.607602179142 228 168 96
-0.00875521951944 -0.0194998896428 -0.570970508145 90 99 130
-0.0291123421829 0.0092185862564 -0.70984842461 218 159 91
0.00136838583349 -0.0124216171639 -0.565782972657 91 99 137
-0.01956255322 -0.00198106429312 -0.592624386939 216 129 125
-0.0130312324718 -0.0103559519475 -0.587605211433 246 212 115
-0.0265118757467 0.00567998010338 -0.717632414224 187 120 87
-0.00452232955804 -0.0136276621773 -0.588772971821 231 171 89
-0.0295782637273 -0.0422170507628 -0.710414796453 217 151 116
-0.0157297899435 -0.00169980939835 -0.596383845209 245 168 164
-0.0288163333136 -0.0541081626885 -0.691420819549 171 94 77
-0.0116573362264 -0.0227645689361 -0.616193748608 196 134 104
-0.00999271741969 -0.0172924593934 -0.599764368648 234 175 102
-0.00296938941894 0.0266478486404 -0.54429723659 201 137 94
-0.0213200834818 0.00704993430926 -0.711358237685 164 100 85
-0.0244777796193 0.0140717551654 -0.715765536817 216 145 90
-0.0190166081921 -0.00265838476161 -0.601039011445 206 126 125
-0.038716117353 -0.066579101707 -0.670528538548 136 64 36
-0.0165383105727 -0.0271888311828 -0.650293382908 134 73 45
-0.0237142331582 0.0145427852398 -0.721388262162 35 32 66
-0.0107645924891 -0.0262274037158 -0.59817501299 184 129 40
-0.0153478007102 -0.0107765997722 -0.651320332949 204 137 111
-0.0183966234176 -0.012815629039 -0.61363932995 153 78 15
-0.0289593746973 -0.000330779401952 -0.587545699082 248 167 163
-0.00643711789868 -0.00732744301394 -0.577738658162 231 177 94
-0.0262477513735 -0.0422383990009 -0.712479045694 210 140 107
-0.0111486623351 -0.00855226947183 -0.593546240768 164 108 17
-0.0263582748164 -0.037989538668 -0.711424570683 170 96 59
-0.0226733979418 0.00725721737787 -0.710105037898 157 92 79
-0.0299395033413 -0.0540159513818 -0.715296189067 139 75 88
-0.0200590855006 0.0138062922505 -0.726958695519 74 90 170
-0.00825617211737 0.014244552265 -0.551679570325 149 91 99
-0.031739566803 -0.0437791276318 -0.712264589162 183 112 89
0.00968251550118 0.0168441911145 -0.567789376907 112 64 73
-0.0290643922831 -0.00473529678321 -0.59679894957 131 66 53
-0.0339566571453 -0.0530524636193 -0.712295887832 143 79 91
-0.00600858229533 0.0140822544757 -0.552988546154 143 85 94
-0.016793742092 -0.0285827449048 -0.661481035754 151 86 71
-0.0299180317288 -0.0468698410175 -0.719255277636 55 48 73
-0.000689535637378 0.0174236320755 -0.558023491104 135 108 109
-0.00241944129831 -0.00556074176771 -0.55554022167 218 183 137
0.00199197495715 0.0144953979484 -0.557208170437 120 62 76
-0.0139537648649 -0.00986993607595 -0.59287195591 248 206 106
-0.0201361934702 -0.0190927233091 -0.679505711385 183 111 91
-0.0229563227713 -0.0320712922056 -0.701557347198 160 86 51
-0.0252274961493 -0.034416427232 -0.718095078795 69 54 79
-0.0186454896502 -0.00304306533248 -0.599273658095 231 154 151
-0.0268335161825 0.00162571074627 -0.617305004232 82 49 49
-0.0252744409132 0.00477576919397 -0.706619450354 223 156 104
-0.0198222078173 0.0111453567935 -0.712376431349 153 97 58
0.00292251391868 -0.00891399146792 -0.559794068388 89 95 130
-0.0144900356702 -0.010716773803 -0.656512557806 214 139 102
-0.0310594026319 -0.0490680264112 -0.721780461291 67 77 142
-0.0185839967297 -0.00588178422383 -0.596316743136 198 127 84
-0.022381396316 0.002549051549 -0.613166940145 192 108 113
-0.0234789426034 0.00372020813023 -0.683140675029 155 83 58
-0.0248880976818 0.00134850871253 -0.704102587161 164 92 62
-0.0208496504927 -0.0103915331436 -0.639473357896 196 132 74
-0.0175370121168 -0.0180037511507 -0.680890865493 212 142 124
-0.0303254955377 -0.041672836415 -0.705554123076 210 135 102
-0.0169372868377 -0.0263854312885 -0.638346328572 216 152 120
-0.0217103363417 -0.00972943270381 -0.651108592676 188 111 76
-0.0265712509509 -0.0389010142004 -0.712431598001 236 164 122
-0.0195342214385 -0.0159440088587 -0.655208567216 175 99 69
-0.0221736013583 -0.0261426580724 -0.700843363911 125 48 30
-0.027396061551 -0.0347607365461 -0.69347036134 232 165 109
-0.0232048275947 0.0122776159105 -0.72057614562 111 57 73
-0.0210720036135 -0.0103578166088 -0.643304363011 148 61 49
-0.0225309999484 -0.011749249772 -0.646526532923 150 70 71
-0.0173663617592 -0.0194758789599 -0.641493632652 192 100 69
-0.0178159220028 -0.00355694887563 -0.624188722424 173 120 105
-0.0136559984567 -0.0230226711791 -0.614533479712 180 110 83
-0.0120127849506 -0.0280301484971 -0.604882978597 108 117 179
-0.00893377080058 -0.00378970351809 -0.579449623951 208 152 63
-0.00813954132547 -0.0348439696725 -0.622092864776 231 185 104
-0.0118647635193 -0.0242457270645 -0.62944252559 200 132 97
-0.0176522335047 -0.0311991526372 -0.654469613253 154 102 41
-0.0223202707269 -0.0122484594458 -0.634911826136 253 188 119
-0.0184279811358 -0.00211094407948 -0.598937609699 195 107 110
-0.00819703234749 -0.0189184359424 -0.578579187459 143 92 8
-0.039225076735 -0.0693334803036 -0.653533492319 126 54 46
-0.0229446652443 0.00298309383317 -0.685116969916 159 85 75
-0.0212492557297 -0.0144305132068 -0.654361369051 175 101 74
-0.0120917746832 -0.0112491636896 -0.612473812259 185 113 57
-0.0269417594669 -0.0058282564666 -0.59446034138 182 109 70
-0.0206168651667 0.0159231972789 -0.545890799295 118 64 74
-0.0221296935045 0.0070146067744 -0.679199122029 184 113 66
-0.0258968676789 0.0127419274511 -0.718576011912 107 55 72
-0.0124145033978 -0.0112940555656 -0.589607941401 208 157 75
-0.012894529662 -0.00648830691448 -0.573757236462 253 200 120
-0.0145575659254 -0.000619460844089 -0.600756885459 227 147 147
-0.0391297486123 -0.0693477914316 -0.65364284532 126 54 46
-0.023249819857 -0.011649744114 -0.643637933874 193 130 76
-0.0240176448792 -0.0226541654873 -0.620516309064 199 133 97
-0.0271258362194 -0.0115844458758 -0.628946550485 213 142 66
-0.01938148748 -0.0135501377761 -0.660558364139 99 39 47
0.0075674420324 -0.00676696669616 -0.561330442534 229 192 147
-0.0400316189284 -0.0711524147873 -0.651127174729 222 148 117
-0.0188492374955 -0.0118279675825 -0.629738241707 206 130 86
-0.00803722066724 -0.0139945906815 -0.643061285029 232 167 84
-0.00565505388888 -0.011903670686 -0.575297424696 242 164 119
-0.0157737872277 -0.0119455264065 -0.643454256517 188 126 46
-0.0189677918747 -0.00821364981431 -0.62270308954 130 55 12
-0.0192372664374 -0.00454291081299 -0.596502387532 86 30 21
-0.0184404119476 -0.00988493857041 -0.619392497574 249 180 142
-0.0141244473777 -0.0336688474784 -0.618149412513 249 200 123
-0.0290933746476 0.00993844777351 -0.610274187756 206 131 119
-0.0216081931047 -0.012961985431 -0.643076602615 219 172 102
-0.0153877849077 -0.00850914790368 -0.660207244133 179 103 72
-0.00796698960549 -0.0129022575528 -0.584052055348 234 180 109
-0.0108979820063 -0.0101052835395 -0.62923344964 177 110 66
-0.0133785850573 -0.0265866481025 -0.641438455822 198 131 104
-0.0202205121354 -0.00888069777089 -0.637684234945 252 219 161
-0.0300674096798 -0.057582959756 -0.711026325546 163 102 96
-0.0269337212346 0.0129078243855 -0.718931481156 46 30 52
-0.0379870134812 -0.0624752455034 -0.681996418843 150 80 84
-0.040268683482 -0.0730630563366 -0.648069804355 185 118 104
-0.0185764328353 -0.0212273730855 -0.682197553762 228 156 122
-0.0168355113821 -0.0344836804259 -0.680302110795 198 144 105
-0.0296683254277 -0.0378789394296 -0.702745723588 209 133 83
-0.0299032426019 -0.0437903569205 -0.707882374167 210 142 92
-0.0172406340902 -0.0264767255436 -0.638235413701 214 149 115
-0.0241473303628 -0.00832584579172 -0.634864455694 236 189 134
-0.0349601731137 -0.0574823434853 -0.707048569492 158 97 84
-0.0246116437007 0.00650472301825 -0.610375718973 173 93 92
-0.0194755245363 -0.0133331189818 -0.654233122085 163 88 93
-0.0393684071052 -0.0702535977952 -0.663225440092 151 87 72
-0.024442691534 -0.00696043128749 -0.637122700596 191 119 81
-0.0218289184644 -0.00232782333115 -0.635111812202 190 121 76
-0.0241219096751 -0.0118650299426 -0.645313026674 139 58 56
-0.0108190202318 -0.0254553920373 -0.622048678668 178 112 69
-0.00918660421491 -0.0189056895354 -0.596147794365 209 137 94
-0.0192838075425 -0.0248819464203 -0.6833049417 136 64 62
-0.0227417277932 -0.00810550485245 -0.65387652063 158 81 47
-0.0187152631524 -0.0106389430416 -0.711320820087 84 87 129
-0.0207436204581 -0.0300334445632 -0.691143502342 188 113 84
-0.0382137987423 0.00231555578762 -0.608716950771 100 65 64
-0.0225739453716 -0.0103156009403 -0.564609787817 248 170 130
-0.0245765587948 -0.00221459774241 -0.700722162256 198 133 92
-0.0213706546585 -0.011934923368 -0.64499725382 181 120 72
-0.0194959038493 -0.0010096177994 -0.606209317445 221 137 138
-0.014400023915 -0.0276301565222 -0.65588757241 148 84 53
-0.0059158130219 -0.0119548463379 -0.57859176457 245 183 111
-0.0257742405057 -0.032684402065 -0.721060828955 64 73 141
-0.0352187950961 -0.0538261632532 -0.699021358967 180 112 96
-0.0332544698062 -0.0242468343761 -0.686300798865 213 139 109
-0.0236940873156 -0.0358423070573 -0.706783959945 139 57 38
-0.0098601130159 -0.024107596511 -0.578496211631 88 100 135
-0.0296139901444 -0.035800796949 -0.681231690857 132 102 111
-0.0110950717405 -0.0265423251718 -0.703559102588 158 84 65
-0.0191443131893 -0.0221106717769 -0.6816316117 208 135 95
-0.0183088462226 -0.0159029840494 -0.637634887413 184 107 59
-0.0261077769066 0.0106440408278 -0.711973316114 226 165 91
-0.00478532776739 -0.0117583651063 -0.571531124637 236 161 112
-0.030799650537 -0.0438893067002 -0.714134588881 181 114 105
-0.0150919831393 -0.0120406846895 -0.605977093637 193 114 54
-0.0374634926446 -0.0651172550203 -0.66593736752 200 125 86
-0.0167611430992 -0.0201104330677 -0.685054482296 155 78 68
-0.0193367542455 -0.0157068414426 -0.641764388733 159 82 33
-0.0223838629068 -0.0128756526491 -0.64817802056 187 113 80
-0.00217542227622 0.00418457366832 -0.555651426955 228 164 118
-0.0220579218461 -0.0199895898418 -0.678686421731 206 134 110
-0.0188966447583 -0.0202625445685 -0.68069694413 183 111 92
-0.0241964244935 0.00748863024414 -0.701265267748 144 78 74
-0.0302697625627 -0.0695666866705 -0.652054513612 159 105 101
-0.0254707894009 0.00923980160248 -0.683551038035 150 82 78
-0.0294828743295 -0.0440660273049 -0.719989621608 37 34 62
-0.0172051575317 -0.0118720218301 -0.615897947459 246 180 125
-0.0331884901401 -0.0588025462408 -0.684191492802 195 126 98
-0.0334077203372 -0.0582311694536 -0.705661028319 169 100 92
-0.0197120559383 -0.0015163279999 -0.728800232231 75 88 172
-0.0161600535257 -0.0316801743404 -0.673999360414 215 189 160
-0.0106521581135 -0.0313844378731 -0.63725273183 131 71 19
-0.0379689374658 -0.0643409672712 -0.671791866184 162 90 88
-0.0304246611499 -0.0419636744595 -0.716618058546 117 65 78
-0.00764484362547 -0.0107919681667 -0.632604243021 201 131 86
-0.0305648904213 0.00486632551459 -0.717182296997 67 39 58
0.00177580761653 0.00617570020979 -0.553933943382 247 196 161
-0.0292287481238 -0.055139471485 -0.713612968567 198 126 104
-0.0223938244294 -0.0383152368741 -0.690955531428 112 116 179
-0.0200038534311 -0.0248195978167 -0.660852572159 199 146 85
-0.0131144985954 -0.0303494876964 -0.698923351082 169 100 90
0.00162939457434 0.0213959067537 -0.560526002737 88 97 131
-0.0180597514873 0.0034630810231 -0.56984464453 208 135 119
-0.0231641554816 -0.00676151743153 -0.652104998076 169 95 54
-0.00618195934444 -0.0276413116919 -0.587021843046 94 104 150
-0.017327513934 0.00271149120955 -0.687635387799 125 54 30
-0.0275145859799 -0.0385769467835 -0.719282268294 63 38 62
-0.0257909333864 -0.00361482878495 -0.665567139873 152 83 85
-0.0228018671233 -0.0319670157768 -0.649613990951 90 94 153
-0.0242114728448 0.00865998356833 -0.71999411084 139 78 73
-0.0319495089674 -0.0680545969173 -0.652435400874 116 103 145
0.00640317219444 0.00527652085196 -0.554558389671 235 200 149
-0.0177522309665 -0.025170856175 -0.662584261749 182 127 70
-0.035916074599 -0.0590990495481 -0.687144734746 180 103 94
-0.0233221822305 -0.00678000762418 -0.651934516164 151 76 34
-0.0243734871364 0.00317906428943 -0.686831789914 213 150 91
-0.0245437665226 -0.0158058224555 -0.579667321572 192 134 83
-0.0243562152881 -0.00997047081857 -0.653991160857 211 138 101
-0.0184670722599 -0.0190646307725 -0.669014158479 113 38 7
8.4408731864e-05 0.0253867294987 -0.550339196177 138 104 107
-0.0271606685991 -0.0108521540587 -0.646406468835 153 94 82
-0.0188376759711 -0.00702486974109 -0.659066154043 219 149 102
-0.03471567063 -0.0595339393236 -0.706486242134 129 66 69
0.00557516678784 0.018264325456 -0.558062669816 91 99 134
-0.00223189706068 0.00721249110594 -0.552480306529 255 217 188
-0.0184408850339 -0.0289040730635 -0.674522202524 234 159 116
0.000767311879536 -0.00931950121366 -0.572797447407 236 166 111
-0.0211769364988 -0.0266761286054 -0.70488709803 192 119 111
-0.00469789944523 -0.0281438306363 -0.587778094283 95 105 151
-0.0198868794723 -0.00651125144391 -0.615656252419 132 63 47
-0.0239213243723 -0.00148962934448 -0.651906723688 177 102 63
-0.0260211091282 -0.00167606915161 -0.634838002814 190 122 49
-0.0321697557877 -0.0470149776252 -0.703279341865 204 133 108
-0.0266777856035 -0.0108319309365 -0.638277133412 249 204 122
-0.00703099582635 -0.0030391859833 -0.5709396876 254 194 138
-0.000306271091045 0.00696509979384 -0.600118002068 80 30 27
-0.0173381904042 -0.024489123783 -0.594461466915 190 128 48
-0.0123339388021 -0.0285723160387 -0.66747197381 152 85 73
-0.0335756487118 -0.0541739370323 -0.71006055537 207 133 105
-0.0139383539193 -0.0227189537623 -0.621155792998 181 111 81
-0.0235124955487 -0.00794388871913 -0.651611507084 142 65 27
-0.018195295092 -0.0145577957781 -0.660809353303 189 119 113
-0.0270012242916 -0.00546557350527 -0.706775935642 80 85 137
-0.0215045631946 -0.0111426066597 -0.630651900372 249 183 118
-0.0126019922269 -0.0348648831863 -0.63884796183 154 109 30
-0.0128029292462 -0.0299870545676 -0.613651984887 153 105 42
-0.0224411887595 0.00661698430247 -0.680198974985 192 122 83
-0.026465232304 -0.00541555105104 -0.707453392126 86 89 141
-0.0212558699532 -0.0275156512579 -0.693812433981 223 146 111
-0.0179046538905 -0.0269579217199 -0.659831527873 148 76 43
-0.0502686327331 -0.0590324820316 -0.663151358102 150 81 80
-0.0398124224829 -0.066286729623 -0.666498474598 203 124 98
-0.0473823502629 -0.0609024624581 -0.66073854409 149 79 74
-0.0159755246091 -0.0225267931638 -0.687907698082 158 81 59
0.00244502282037 -0.00355655122182 -0.563839092535 213 135 80
-0.0278737241259 0.00752855709573 -0.718357697241 110 65 76
-0.0146262277358 -0.0251988287831 -0.582715267648 97 105 159
-0.0203395244462 -0.00608340395354 -0.628935297482 201 135 100
-0.0165969495917 -0.00183751583584 -0.731629832022 77 90 175
0.00940955753309 -0.00266269346771 -0.549473093717 86 96 125
-0.019213160046 -0.0274937697185 -0.603270006638 107 118 183
-0.00807364025088 -0.024948841697 -0.589593941749 102 112 174
-0.00993414016007 0.022660718008 -0.548606671169 95 100 138
-0.0240020561527 0.00450081035329 -0.69407201643 176 104 60
-0.0178338709064 -0.0110346299683 -0.632320830594 189 103 52
-0.0388238087274 -0.0687638394818 -0.66299057968 205 138 117
-0.023739603571 -0.0396588785729 -0.718220951413 134 65 63
-0.0316525628561 -0.0079846447484 -0.645090104487 208 130 83
-0.012759524766 0.000241496881282 -0.602023030213 215 134 135
-0.0348970890863 -0.0530018889154 -0.698315636757 160 89 81
-0.0219508238808 0.00429550287173 -0.681107767705 225 155 110
-0.0239667385596 -0.0216941933679 -0.629141681086 190 127 72
-0.0143296320434 -0.0305876052362 -0.65121454977 105 116 185
-0.0195657477064 -0.0378081460031 -0.711109271998 164 92 50
-0.0333247178369 0.00325626534072 -0.589167606215 226 145 144
-0.0197947838553 -0.00673626691455 -0.607961959033 123 57 35
-0.0140838774294 0.000642880652905 -0.643245011814 188 128 59
-0.0127221632626 -0.0239510970113 -0.592931369004 193 127 71
-0.0178297950138 -0.0221131819192 -0.674146035833 133 51 40
0.00155258556544 0.0222781134812 -0.561450157693 88 98 133
-0.0386574765189 -0.0671451750109 -0.672237744477 175 104 89
-0.00538970470179 -0.0144771527738 -0.563463162129 90 96 129
0.00824689452361 0.013655288811 -0.548255822412 236 186 123
-0.0216929906656 -0.029757763098 -0.710629084652 158 84 67
-0.0243048513844 -0.0382456811994 -0.695586567934 179 100 76
-0.0217711834405 -0.0229662133769 -0.623438867016 239 190 122
-0.00799473479366 0.0010264099277 -0.53667821363 91 96 127
-0.030807895971 0.00733559529722 -0.714851268277 162 98 87
-0.0180750448281 -0.0143955968397 -0.673483221229 134 72 68
-0.0179491928479 -0.018283349974 -0.668441862204 246 176 143
-0.0160292047149 -0.0124852895243 -0.619855210871 176 100 61
-0.0587348768212 -0.0577267556699 -0.662708605128 164 92 89
-0.0127217618067 -0.0244285476562 -0.631164191937 181 116 74
-0.0162944750023 -0.00785532750631 -0.625156251388 155 80 32
-0.0191117012843 -0.0374242785583 -0.687772478154 103 110 169
-0.0241264955204 0.00247817271376 -0.693331153088 240 168 119
-0.00946007251054 -0.0371242760847 -0.637694780893 112 121 194
-0.0366875776549 -0.0594768057579 -0.718000688734 117 122 188
-0.0175883956798 -0.00991499732749 -0.612449271322 201 128 100
-0.0342826793033 -0.0598087059984 -0.672831636112 120 46 42
-0.0160364489603 -0.0276628736334 -0.636294913353 191 123 84
-0.0174822412974 -0.0107562621789 -0.619036352671 174 91 58
-0.0427731320157 -0.0451049308528 -0.693649587975 208 142 102
-0.0256228471552 0.0038510147398 -0.69959428336 164 91 78
-0.00399878178135 0.00389983130264 -0.567903137337 175 102 79
-0.0168183512427 -0.036006598551 -0.644315407783 198 138 100
-0.0231391091412 0.0013871256479 -0.684294794424 169 99 80
-0.0227594845679 0.0059945503895 -0.732535398793 99 109 190
-0.0109618182403 -0.00232569203288 -0.586946825751 223 159 80
-0.0150780908113 -0.0339032589281 -0.611125818723 110 117 182
-0.0313465850645 -0.0605080086347 -0.674996630014 132 63 55
0.00272786488959 -0.0204795796058 -0.606052183128 185 118 81
-0.0152959274931 -0.014337999511 -0.660221606469 148 78 68
-0.00799738430875 -0.0217071200082 -0.576098813256 89 103 132
-0.0122069093749 0.0176273034571 -0.715496517055 96 103 168
-0.025725914328 0.00963450151663 -0.715640571841 179 105 77
-0.0154272586921 0.00877566981026 -0.660234711444 159 95 87
0.00235280950538 0.00787990266028 -0.555656455568 236 178 154
-0.0350162951353 0.00779528547212 -0.722556884194 97 107 189
-0.0381663132928 -0.0627041884966 -0.679505621371 154 81 66
-0.0423959312874 -0.0639780698757 -0.650541128288 119 118 166
-0.0307177637982 -0.0661519050009 -0.677009621464 169 93 83
-0.0189354031981 -0.039710576287 -0.639832071421 109 119 188
-0.0285995970746 -0.000544295856818 -0.717299486156 143 92 100
-0.0250032266171 0.00600531798172 -0.730113041103 93 103 185
-0.0144958788365 -0.0236418896989 -0.595696631835 183 115 52
-0.0219025396597 0.00292273780821 -0.677147646781 158 92 87
-0.0250738118266 -0.0369852210036 -0.704901631362 172 94 60
-0.0246169563922 -0.0307500830376 -0.597653451692 110 119 185
0.0150008377581 0.0179168111058 -0.563568010335 91 98 132
-0.028233379103 -0.038331691734 -0.712567642992 198 129 107
-0.0228016615442 0.00294212994792 -0.600474165138 238 155 156
-0.038893975784 -0.0684064260647 -0.660424846196 163 88 74
-0.0112629225187 -0.0101055442884 -0.590512976411 230 184 85
-0.0066073070354 -0.0250181398736 -0.596802435897 190 123 70
-0.018360295776 -0.0159726748537 -0.667675418858 120 54 49
-0.0341339472386 -0.0576346709095 -0.689204626824 176 106 97
-0.0194167673386 -0.0188855598266 -0.662713906392 193 120 85
-0.039010003416 -0.0696710996671 -0.659197839685 205 133 117
0.000371069771878 0.00457532341796 -0.548185134527 228 177 114
-0.0225350388255 -0.00868934489751 -0.635863788061 237 192 137
-0.0155663527782 -0.0297425241871 -0.641210930168 180 104 64
-0.0248031001243 -0.0012188166547 -0.652303007144 193 119 77
-0.0385953597248 -0.0676263066534 -0.662798020337 176 105 83
-0.0119129711829 -0.0288316572699 -0.613304325848 156 103 42
-0.0150567734728 -0.0308931761011 -0.666748502881 113 122 192
-0.0237070509107 -0.0139345098797 -0.652131134467 166 87 71
-0.0328629612608 -0.0486513808021 -0.709986862544 179 109 100
-0.0413284257898 -0.0749919909066 -0.651568045361 196 128 115
-0.0233287343517 -0.0323733128201 -0.707768759991 198 121 93
-0.0105787888569 -0.0277958685425 -0.590098006643 105 115 179
-0.016043372022 0.000481192077207 -0.591124237981 213 127 129
-0.0394248900159 -0.0726388853991 -0.655331502409 168 99 79
-0.0390793844278 -0.0727685235564 -0.655383466549 164 94 74
-0.0180829078771 -0.0327133585663 -0.594000228127 103 113 173
-0.03861703603 -0.0716650175908 -0.643866782339 115 110 164
-0.0338527232441 -0.069974964308 -0.674529748973 191 120 95
-0.0325743481079 -0.0530844031884 -0.717394404318 102 106 153
-0.0189540976271 0.00190038221668 -0.697615987948 231 155 106
-0.0353217372314 -0.0675729217759 -0.647839648228 112 115 181
-0.0313520172935 -0.0547990006439 -0.719564400644 107 109 167
-0.0314941273187 -0.0525842069067 -0.709830863025 155 81 63
-0.0162856489361 -0.0183888043536 -0.635216557206 249 183 131
-0.0209684882585 9.96712436177e-05 -0.599907069025 221 139 140
-0.0205575784424 -0.0162702708374 -0.643253750286 157 70 31
-0.0100738690636 0.0022581010004 -0.639594092838 104 65 47
-0.0249310237107 0.00378238421386 -0.653370128866 177 106 81
-0.00652206897502 0.0080363514009 -0.554248058858 134 61 49
-0.0149651474181 -0.00161107207634 -0.584527005787 205 144 57
-0.0176003864244 0.00652244982252 -0.608026758196 190 116 110
-0.0284111899729 -0.00666500577994 -0.606406889115 142 63 39
-0.0417953914962 -0.0642006798632 -0.679076083748 177 102 76
-0.0215189251019 0.00629915703028 -0.60322713453 172 98 94
-0.0242334172041 -0.0155389444918 -0.640807078577 196 110 73
-0.029317800486 -0.054750194879 -0.720864935944 105 108 164
-0.00911289890043 0.0151905848842 -0.715988685525 101 107 171
-0.0111365968027 -0.0286921790665 -0.60170056913 114 119 183
-0.0107707424104 -0.0383008248461 -0.621658468047 106 116 184
-0.0296159280952 -0.0488829503713 -0.715056340374 146 76 78
-0.0233466855478 -0.00336978375347 -0.65486287344 199 128 94
-0.0230116868386 -0.0738708573363 -0.663225986752 133 64 54
-0.0335128591388 -0.00409102364592 -0.603111061522 150 91 66
-0.0323430709907 -0.0639712747998 -0.672965920831 143 68 65
-0.0368133920109 -0.0766422286236 -0.653843136414 130 65 59
-0.014369625716 -0.0202798505478 -0.643212648081 167 83 56
-0.0171791446549 -0.0021027421661 -0.664730150558 174 103 83
-0.00625538923368 0.00673341278166 -0.556383440735 251 190 163
-0.0271181082052 0.00178072666489 -0.670656977212 184 118 92
-0.0247666137219 -0.0131009993986 -0.65544059238 116 47 43
-0.0211176910876 -0.0311836780206 -0.646699045561 112 119 186
-0.0231531504217 0.000403195497712 -0.657249817596 163 91 64
-0.0329444353259 -0.0497948930281 -0.714962840039 115 55 70
-0.0168118377834 -0.0308793444418 -0.614360947833 173 123 51
-0.0345191144681 -0.0671181835244 -0.647645689288 113 118 188
-0.020692889133 0.00776577450983 -0.628985386031 126 116 163
-0.0261699871666 -0.0172862374575 -0.661728592226 234 162 129
-0.00312466400378 0.00147484609273 -0.578923818398 214 136 111
0.00217117935321 0.00706182127383 -0.559280658837 177 103 89
-0.0388663333514 -0.0667608774946 -0.664639713606 163 89 72
-0.0244004104022 -0.0170953573857 -0.663824288102 214 145 112
-0.0110375686285 0.00232291715387 -0.555503884598 247 179 141
-0.0230663428267 -0.00441222670453 -0.650762215383 192 120 72
-0.0191693602607 -0.0142875807462 -0.665654316079 103 39 34
-0.0262390170608 0.00048987993227 -0.699140801498 158 87 50
-0.0179674640788 0.000978434758044 -0.675470608248 142 78 73
-0.00649442765973 -0.039663485017 -0.642935343591 110 119 189
-0.0156211326603 -0.011088622998 -0.620250864378 193 113 76
-0.0101439265377 -0.0252047677176 -0.591024185102 87 83 129
-0.0134882307035 -0.0352743563359 -0.687233142253 112 115 182
-0.0132247506714 -0.0345737846493 -0.628391788237 110 117 185
-0.0320147038348 -0.0563731166666 -0.716567176827 115 118 178
-0.0256014604871 -0.00253032685429 -0.699101746023 168 101 66
-0.00965222610629 -0.0292236233172 -0.609513800372 111 118 179
-0.0117301828175 -0.019372128078 -0.565531108972 89 98 130
-0.0200813665626 -0.0404026105845 -0.639474852602 111 119 190
-0.0394146233439 -0.0400967647323 -0.71062171603 109 68 85
-0.0225500144821 0.00272088436929 -0.660388775046 126 54 45
-0.0174802495529 0.00952807841914 -0.558915016257 136 88 100
-0.013860449306 0.000484423039207 -0.728492494989 141 83 85
-0.00549663332062 -0.0299548486898 -0.613400914403 108 118 180
-0.00368732476156 -0.0391470808097 -0.64325597986 114 123 182
-0.0160018981206 0.00540891095117 -0.606734866799 196 124 121
-0.0187064249721 -0.0206571469459 -0.685574833882 235 161 140
-0.0131267870415 -0.034428728429 -0.715626647824 195 118 89
-0.0205901019506 -0.0451896230188 -0.702289822367 169 100 63
0.011823831253 0.0229969954054 -0.542803792239 97 108 139
-0.016046969578 -0.0333802777994 -0.595035539816 106 113 176
-0.0206796747783 -0.0356021681839 -0.656083779458 110 119 190
-0.0328029951436 -0.0582569680271 -0.715089207339 112 116 177
-0.0242363804804 -0.0290202793935 -0.624166283024 91 97 148
-0.0160116914986 -0.0363966611626 -0.659673070058 110 119 190
-0.0410030121032 -0.0719791988891 -0.663356666353 115 107 170
-0.0104651669046 -0.0236801823035 -0.621194674371 134 71 37
-0.00919564817452 0.00839835787043 -0.665268982223 150 85 82
-0.0255867668192 0.00616977455482 -0.639085087991 168 107 61
3 0 41 354
3 245 41 354
3 95 245 354
3 74 95 354
3 93 0 41
3 386 93 41
3 171 386 41
3 192 171 41
3 192 245 41
3 299 245 95
3 142 95 74
3 239 386 93
3 239 171 386
3 201 192 171
3 234 201 192
3 51 234 192
3 51 245 192
3 51 245 299
3 31 51 299
3 116 31 299
3 165 116 299
3 181 165 299
3 307 181 299
3 327 307 299
3 188 327 299
3 188 95 299
3 99 171 201
3 10 99 201
3 180 10 201
3 406 180 201
3 97 406 201
3 381 97 201
3 31 381 201
3 51 31 201
3 89 51 201
3 89 234 201
3 51 89 234
3 441 381 31
3 165 441 31
3 165 116 31
3 88 307 327
3 377 88 327
3 459 377 327
3 269 459 327
3 132 269 327
3 132 188 327
3 54 99 10
3 223 54 10
3 104 223 10
3 7 104 10
3 7 180 10
3 7 406 180
3 118 7 406
3 134 406 97
3 134 381 97
3 101 134 381
3 424 101 381
3 424 441 381
3 307 377 88
3 275 307 377
3 75 275 377
3 473 75 377
3 473 459 377
3 297 440 459
3 297 269 459
3 252 132 269
3 252 297 269
3 297 252 132
3 390 297 132
3 332 390 132
3 332 188 132
3 247 7 104
3 17 247 104
3 50 17 104
3 112 50 104
3 407 112 104
3 398 407 104
3 350 398 104
3 350 223 104
3 247 118 7
3 96 424 101
3 195 96 101
3 170 195 101
3 138 170 101
3 182 138 101
3 182 134 101
3 77 441 424
3 77 96 424
3 490 75 473
3 440 490 473
3 440 459 473
3 128 490 440
3 128 297 440
3 85 128 297
3 133 85 297
3 133 390 297
3 284 332 390
3 175 17 247
3 114 175 247
3 371 114 247
3 348 371 247
3 232 348 247
3 232 118 247
3 32 50 17
3 52 32 17
3 259 52 17
3 259 175 17
3 485 32 50
3 164 485 50
3 333 164 50
3 449 333 50
3 449 112 50
3 350 407 112
3 350 398 407
3 53 350 112
3 309 53 112
3 3 309 112
3 3 449 112
3 480 223 350
3 423 480 350
3 423 53 350
3 176 77 96
3 126 176 96
3 404 126 96
3 436 404 96
3 170 436 96
3 170 195 96
3 177 128 490
3 335 128 85
3 105 335 85
3 292 105 85
3 352 292 85
3 274 352 85
3 24 274 85
3 24 133 85
3 259 114 175
3 302 371 114
3 302 259 114
3 348 302 371
3 139 302 348
3 146 139 348
3 443 146 348
3 442 443 348
3 494 442 348
3 494 232 348
3 445 494 232
3 341 445 232
3 108 341 232
3 108 118 232
3 485 52 32
3 196 302 259
3 374 196 259
3 479 374 259
3 363 479 259
3 34 363 259
3 34 52 259
3 163 52 485
3 492 163 485
3 417 492 485
3 318 417 485
3 197 318 485
3 382 197 485
3 382 164 485
3 382 333 164
3 163 449 333
3 492 163 333
3 417 492 333
3 417 382 333
3 334 223 480
3 277 334 480
3 277 423 480
3 454 404 126
3 123 128 177
3 1 498 105
3 1 292 105
3 498 1 292
3 19 498 292
3 19 352 292
3 24 352 274
3 162 139 302
3 162 196 302
3 467 162 139
3 445 494 442
3 442 445 146
3 442 443 146
3 479 162 196
3 479 374 196
3 318 382 417
3 197 382 318
3 347 126 454
3 198 228 454
3 216 198 454
3 216 404 454
3 39 479 162
3 190 39 162
3 316 190 162
3 330 316 162
3 330 467 162
3 13 36 467
3 304 13 467
3 219 304 467
3 46 219 467
3 214 46 467
3 214 330 467
3 115 126 347
3 358 479 39
3 12 358 39
3 202 12 39
3 202 190 39
3 169 337 190
3 169 316 190
3 413 169 316
3 214 413 316
3 214 330 186
3 186 214 316
3 186 330 316
3 349 467 36
3 303 349 36
3 474 303 36
3 287 474 36
3 313 287 36
3 293 313 36
3 221 293 36
3 21 221 36
3 21 13 36
3 219 149 13
3 219 304 13
3 220 46 219
3 214 220 219
3 413 214 219
3 204 413 219
3 204 149 219
3 220 214 46
3 185 479 358
3 312 185 358
3 337 202 12
3 337 190 202
3 243 337 12
3 435 243 12
3 161 435 12
3 16 161 12
3 213 16 12
3 373 213 12
3 365 373 12
3 167 365 12
3 167 358 12
3 204 243 337
3 204 413 169
3 204 169 337
3 507 467 349
3 276 287 474
3 225 276 474
3 452 225 474
3 452 303 474
3 276 313 287
3 225 276 313
3 153 225 313
3 153 293 313
3 57 153 293
3 57 221 293
3 160 57 221
3 251 160 221
3 231 251 221
3 199 231 221
3 184 199 221
3 159 184 221
3 159 21 221
3 199 13 149
3 199 184 13
3 250 199 149
3 149 243 204
3 479 312 185
3 167 358 312
3 222 167 312
3 505 222 312
3 103 505 312
3 14 103 312
3 14 479 312
3 161 435 243
3 250 161 243
3 250 149 243
3 199 250 161
3 437 199 161
3 457 437 161
3 82 457 161
3 82 16 161
3 152 82 16
3 152 213 16
3 203 414 373
3 203 213 373
3 290 461 225
3 290 153 225
3 415 303 452
3 439 415 452
3 463 439 452
3 489 463 452
3 294 489 452
3 294 225 452
3 461 290 153
3 217 461 153
3 113 217 153
3 419 113 153
3 251 419 153
3 160 251 153
3 160 57 153
3 437 231 199
3 203 213 152
3 203 152 82
3 264 373 414
3 317 264 414
3 72 317 414
3 378 72 414
3 462 378 414
3 110 462 414
3 110 203 414
3 225 217 461
3 489 389 439
3 489 463 439
3 458 389 489
3 280 458 489
3 280 294 489
3 458 280 294
3 200 458 294
3 475 200 294
3 385 475 294
3 143 385 294
3 155 143 294
3 155 225 294
3 113 251 419
3 482 373 264
3 369 482 264
3 369 317 264
3 478 369 317
3 395 478 317
3 73 395 317
3 73 72 317
3 378 73 72
3 55 73 378
3 55 462 378
3 281 462 110
3 345 281 110
3 168 345 110
3 233 168 110
3 37 233 110
3 9 37 110
3 9 203 110
3 475 458 200
3 362 408 475
3 472 362 475
3 314 472 475
3 314 385 475
3 187 314 385
3 187 143 385
3 187 155 143
3 502 373 482
3 465 502 482
3 76 465 482
3 166 76 482
3 450 166 482
3 493 478 369
3 487 73 395
3 487 55 73
3 168 500 281
3 168 345 281
3 322 233 168
3 129 322 168
3 503 129 168
3 503 500 168
3 410 37 233
3 272 410 233
3 272 322 233
3 49 410 37
3 49 9 37
3 49 203 9
3 361 362 408
3 291 361 362
3 410 362 472
3 410 272 362
3 468 410 472
3 468 314 472
3 450 76 166
3 285 272 322
3 285 129 322
3 418 285 129
3 418 503 129
3 49 468 410
3 285 362 272
3 150 35 361
3 135 150 361
3 254 135 361
3 253 254 361
3 22 253 361
3 84 22 361
3 351 84 361
3 20 351 361
3 20 291 361
3 48 362 285
3 27 48 285
3 27 418 285
3 310 27 418
3 20 310 418
3 20 351 298
3 298 20 418
3 263 298 418
3 460 361 35
3 477 460 35
3 399 477 35
3 61 399 35
3 379 61 35
3 25 379 35
3 278 25 35
3 368 278 35
3 209 249 35
3 242 209 35
3 242 150 35
3 254 135 150
3 254 242 150
3 242 22 253
3 242 254 253
3 298 84 22
3 263 298 22
3 18 263 22
3 87 18 22
3 87 242 22
3 298 84 351
3 48 291 20
3 27 48 20
3 27 310 20
3 362 291 48
3 210 18 263
3 399 477 460
3 319 399 460
3 343 319 399
3 173 343 399
3 173 61 399
3 173 379 61
3 288 173 379
3 288 25 379
3 278 288 25
3 63 368 278
3 63 288 278
3 336 63 368
3 242 209 249
3 495 242 249
3 326 495 249
3 224 87 18
3 43 224 18
3 43 210 18
3 242 224 87
3 481 367 210
3 45 481 210
3 227 45 210
3 59 227 210
3 59 43 210
3 178 460 319
3 147 319 343
3 147 173 343
3 80 288 173
3 80 147 173
3 63 80 288
3 224 326 495
3 224 242 495
3 43 224 326
3 59 43 326
3 321 59 326
3 227 481 367
3 227 45 481
3 2 227 367
3 271 2 367
3 59 2 227
3 321 2 59
3 156 2 321
3 157 271 2
3 30 157 2
3 30 156 2
3 66 357 271
3 66 157 271
3 136 30 156
3 422 136 156
3 356 422 156
3 300 356 156
3 273 321 156
3 66 30 157
3 38 66 30
3 38 136 30
3 38 66 357
3 211 38 136
3 400 211 136
3 238 400 136
3 346 238 136
3 346 422 136
3 346 356 422
3 69 300 356
3 137 346 356
3 69 156 273
3 69 300 156
3 241 69 273
3 497 38 211
3 6 497 211
3 305 6 211
3 4 305 211
3 151 4 211
3 100 151 211
3 117 100 211
3 67 117 211
3 67 400 211
3 67 238 400
3 119 67 238
3 119 346 238
3 117 119 346
3 117 67 119
3 154 117 346
3 339 154 346
3 339 137 346
3 235 339 137
3 496 69 241
3 26 102 497
3 342 26 497
3 47 342 497
3 47 6 497
3 40 47 6
3 40 305 6
3 420 40 305
3 212 420 305
3 151 212 305
3 151 4 305
3 124 212 151
3 124 100 151
3 266 117 100
3 246 266 100
3 246 124 100
3 339 154 117
3 279 339 117
3 279 266 117
3 279 339 235
3 260 28 102
3 409 260 102
3 409 26 102
3 409 342 26
3 236 342 47
3 236 40 47
3 434 420 40
3 127 434 40
3 311 127 40
3 205 311 40
3 215 205 40
3 261 215 40
3 261 236 40
3 124 212 420
3 246 124 420
3 266 246 420
3 451 266 420
3 464 451 420
3 121 464 420
3 270 121 420
3 127 270 420
3 127 434 420
3 258 279 266
3 130 258 266
3 130 451 266
3 403 258 279
3 403 235 279
3 207 392 260
3 286 207 260
3 286 409 260
3 501 270 127
3 205 501 127
3 205 311 127
3 295 215 205
3 295 261 215
3 144 130 451
3 447 144 451
3 433 447 451
3 430 433 451
3 430 464 451
3 430 121 464
3 433 430 121
3 483 433 121
3 501 483 121
3 501 270 121
3 144 130 258
3 444 207 392
3 433 483 501
3 370 433 501
3 392 207 444
3 5 8 79
3 320 5 79
3 81 91 79
3 23 81 79
3 56 23 79
3 56 8 79
3 33 56 8
3 33 5 8
3 315 5 320
3 396 81 91
3 81 56 23
3 140 33 56
3 148 140 33
3 148 5 33
3 98 268 396
3 98 81 396
3 94 56 140
3 120 94 140
3 255 120 140
3 376 255 140
3 476 376 140
3 476 148 140
3 230 476 148
3 230 5 148
3 391 396 268
3 328 391 268
3 328 98 268
3 388 328 98
3 360 388 98
3 360 81 98
3 388 360 94
3 107 388 94
3 244 107 94
3 141 244 94
3 106 141 94
3 106 120 94
3 106 120 255
3 431 376 255
3 431 476 376
3 484 230 476
3 282 391 328
3 282 388 328
3 179 282 388
3 179 107 388
3 94 81 360
3 282 244 107
3 282 179 107
3 158 282 244
3 158 141 244
3 387 158 141
3 484 476 431
3 44 387 158
3 111 44 158
3 122 111 44
3 42 122 44
3 42 387 44
3 60 42 122
3 397 380 122
3 397 111 122
3 11 68 90
3 208 421 90
3 208 11 90
3 421 90 68
3 428 208 11
3 456 425 421
3 189 456 421
3 189 208 421
3 172 189 208
3 432 172 208
3 432 428 208
3 426 425 456
3 426 189 456
3 426 172 189
3 183 426 172
3 15 402 71
3 125 402 71
3 296 470 71
3 296 15 71
3 131 470 296
3 29 70 86
3 64 405 416
3 65 301 329
3 78 375 508
3 109 353 265
3 191 193 267
3 218 338 504
3 226 262 491
3 331 262 491
3 331 262 226
3 229 486 289
3 248 471 324
3 306 446 340
3 323 325 364
3 372 383 455
3 394 429 455
3 394 372 455
3 372 429 394
3 393 466 411
